<svg width="120" height="120" viewBox="0 0 120 120" xmlns="http://www.w3.org/2000/svg"><path d="m60 25.6c-22 0-39.8 17.9-39.8 39.8s17.8 39.9 39.8 39.9 39.8-17.9 39.8-39.8-17.8-39.9-39.8-39.9z" fill="#4a4797"/><g fill="#312783"><path d="m61.8 28.9c1.6-.3 2.1.6 2.1 2.1v4c0 1.9 1.2 2.9 2.3 2.9-1.1.1-2.3 1-2.3 2.9v3.9c0 1.6-.5 2.4-2.1 2.1v3.2c3.7.8 5.8-.8 5.8-3.7v-5.1c0-1.5 1-1.8 2-1.8v-3.2c-.9 0-2-.2-2-1.8v-5.1c0-1.6-.6-2.7-1.7-3.4-1.3-.2-2.6-.3-3.9-.4-.1 0-.1 0-.2 0z"/><path d="m87.1 36.3v3.2c1 0 2 .3 2 1.8v5.1c0 3 2.1 4.6 5.8 3.7v-3.2c-1.6.3-2.1-.6-2.1-2.1v-1.9c-1.7-2.4-3.6-4.6-5.7-6.6z"/><path d="m63.9 69.7v3.9c0 1.6-.5 2.4-2.1 2.1v3.3c3.7.8 5.8-.8 5.8-3.7v-5.1c0-1.5 1-1.8 2-1.8v-3.2c-.9 0-2-.2-2-1.8v-5.1c0-3-2.1-4.6-5.8-3.7v3.2c1.6-.3 2.1.6 2.1 2.1v3.9c0 1.9 1.2 2.9 2.3 2.9-1.1.2-2.3 1.1-2.3 3z"/><path d="m63.9 98.6v3.9c0 1.6-.5 2.4-2.1 2.1v.5c2-.1 3.9-.3 5.8-.7 0-.1 0-.2 0-.4v-5.1c0-1.5 1-1.8 2-1.8v-3.2c-.9 0-2-.2-2-1.8v-5.1c0-3-2.1-4.6-5.8-3.7v3.2c1.6-.3 2.1.6 2.1 2.1v3.9c0 1.9 1.2 2.9 2.3 2.9-1.1.4-2.3 1.3-2.3 3.2z"/><path d="m92.8 63.4v-3.9c0-1.6.5-2.4 2.1-2.1v-3.2c-3.7-.8-5.8.8-5.8 3.7v5.1c0 1.5-1.1 1.8-2 1.8v3.2c1 0 2 .3 2 1.8v5.1c0 3 2.1 4.6 5.8 3.7v-3.2c-1.6.3-2.1-.6-2.1-2.1v-3.9c0-1.9-1.2-2.9-2.3-2.9 1.1-.3 2.3-1.2 2.3-3.1z"/><path d="m98.2 75.3v1.4c.1-.5.3-.9.4-1.4-.1 0-.2 0-.4 0z"/><path d="m98.2 57.3c.3-.1.6 0 .8 0-.2-1-.5-2.1-.8-3.1z"/><path d="m87.1 94.2v.4c.2-.1.3-.3.5-.4-.2 0-.3 0-.5 0z"/><path d="m94.9 83.6c-3.7-.8-5.8.8-5.8 3.7v5.1.3c1.4-1.5 2.7-3.1 3.9-4.8.1-.4.3-.7.6-.9.5-.8 1-1.5 1.4-2.3v-1.1z"/><path d="m74.7 49.3v-3.9c0-1.6.5-2.4 2.1-2.1v-3.3c-3.7-.8-5.8.8-5.8 3.7v5.1c0 1.5-1.1 1.8-2 1.8v3.2c1 0 2 .3 2 1.8v5.1c0 3 2.1 4.6 5.8 3.7v-3.2c-1.6.3-2.1-.6-2.1-2.1v-3.9c0-1.9-1.2-2.9-2.3-2.9 1.2-.1 2.3-1.1 2.3-3z"/><path d="m82.2 55.2v3.9c0 1.6-.5 2.4-2.1 2.1v3.2c3.7.8 5.8-.8 5.8-3.7v-5.1c0-1.5 1-1.8 2-1.8v-3.2c-.9 0-2-.2-2-1.8v-5.1c0-3-2.1-4.6-5.8-3.7v3.2c1.6-.3 2.1.6 2.1 2.1v3.9c0 1.9 1.2 2.9 2.3 2.9-1.1.2-2.3 1.2-2.3 3.1z"/><path d="m74.7 78v-3.9c0-1.6.5-2.4 2.1-2.1v-3.2c-3.7-.8-5.8.8-5.8 3.7v5.1c0 1.5-1.1 1.8-2 1.8v3.2c1 0 2 .3 2 1.8v5.1c0 3 2.1 4.6 5.8 3.7v-3.2c-1.6.3-2.1-.6-2.1-2.1v-3.9c0-1.9-1.2-2.9-2.3-2.9 1.2-.2 2.3-1.1 2.3-3.1z"/><path d="m82.2 83.9v3.9c0 1.6-.5 2.4-2.1 2.1v3.2c3.7.8 5.8-.8 5.8-3.7v-5.1c0-1.5 1-1.8 2-1.8v-3.2c-.9 0-2-.2-2-1.8v-5.1c0-3-2.1-4.6-5.8-3.7v3.3c1.6-.3 2.1.6 2.1 2.1v3.9c0 1.9 1.2 2.9 2.3 2.9-1.1.1-2.3 1.1-2.3 3z"/><path d="m71 31.8c0 3 2.1 4.6 5.8 3.7v-3.2c-1.6.3-2.1-.6-2.1-2.1v-1.8c-1.2-.5-2.5-.9-3.7-1.3z"/><path d="m80.2 32.3v3.2c2.3.5 4 .1 4.9-1.1-1.1-.9-2.2-1.7-3.4-2.5-.3.5-.8.6-1.5.4z"/><path d="m59.3 25.6c-3.5.1-7 .6-10.2 1.5l4.6 1.5v3.9l-9.7-3.5c-2.5 1.1-4.9 2.5-7.1 4v3.4l-6 1.9c-.4.4-.8.9-1.2 1.3l7.2 2.3v3.9l-9.4-3.4c-.8 1.2-1.6 2.4-2.3 3.6l11.8 4.4v4.3l-12.5 4.5v-3.9l8.7-2.8-8.7-2.8v-2.4c-2.7 5.3-4.3 11.2-4.3 17.6v1c.1 6.3 1.6 12.3 4.3 17.6v-1.9l8.7-2.8-8.7-2.8v-3.9l12.5 4.6v4.3l-11.6 4.2c.8 1.4 1.7 2.7 2.6 4l8.9-3.2v3.9l-6.6 2.1c.6.7 1.2 1.3 1.9 2l4.7 1.5v2.4c6.4 4.5 14.1 7.3 22.5 7.4v-79.7zm-22.4 37.4-8.7 2.8 8.7 2.8v3.9l-12.5-4.5v-4.3l12.5-4.5zm16.8 32-12.5 4.5v-3.9l8.7-2.8-8.7-2.8v-3.9l12.5 4.5zm0-18.9-8.7 2.7 8.7 2.8v3.9l-12.5-4.5v-4.3l12.5-4.5zm0-8-12.5 4.5v-3.9l8.7-2.8-8.7-2.8v-3.9l12.5 4.5zm0-18.3-8.7 2.8 8.7 2.8v3.9l-12.5-4.5v-4.3l12.5-4.5zm0-8.5-12.5 4.5v-3.8l8.7-2.8-8.7-2.8v-3.9l12.5 4.5z"/></g><path d="m36.9 33c-2.2 1.6-4.2 3.3-6 5.3l6-1.9z" fill="#5454af"/><path d="m36.9 42-7.2-2.3c-.8.9-1.5 1.8-2.2 2.8l9.4 3.4z" fill="#5454af"/><path d="m20.2 65.4v.5-1z" fill="#5454af"/><path d="m24.4 68 12.5 4.5v-3.9l-8.7-2.8 8.7-2.8v-3.9l-12.5 4.5z" fill="#5454af"/><path d="m41.2 36.4 8.7 2.8-8.7 2.8v3.9l12.5-4.6v-4.3l-12.5-4.5z" fill="#5454af"/><path d="m33.2 52.6-8.7 2.8v3.9l12.5-4.6v-4.3l-11.8-4.3c-.2.4-.5.9-.7 1.3v2.4z" fill="#5454af"/><path d="m53.7 28.6-4.6-1.5c-1.8.5-3.5 1.1-5.1 1.9l9.7 3.5z" fill="#5454af"/><path d="m41.2 63.2 8.7 2.7-8.7 2.8v4l12.5-4.6v-4.3l-12.5-4.6z" fill="#5454af"/><path d="m41.2 54.7 12.5 4.6v-3.9l-8.7-2.8 8.7-2.8v-3.9l-12.5 4.5z" fill="#5454af"/><path d="m36.9 85.9-8.9 3.3c.7 1 1.5 1.9 2.3 2.8l6.6-2.1z" fill="#5454af"/><path d="m32.2 93.9c1.5 1.4 3 2.7 4.7 3.9v-2.4z" fill="#5454af"/><path d="m37 76.7-12.5-4.5v3.8l8.7 2.8-8.7 2.8v1.9c.3.6.6 1.1.9 1.7l11.6-4.2z" fill="#5454af"/><path d="m41.2 90 8.7 2.8-8.7 2.8v3.9l12.5-4.5v-4.4l-12.5-4.5z" fill="#5454af"/><path d="m41.2 81 12.5 4.6v-4l-8.7-2.8 8.7-2.7v-4l-12.5 4.6z" fill="#5454af"/><path d="m60 107.4c-23.2 0-42-18.8-42-42s18.8-42 42-42 42 18.8 42 42-18.8 42-42 42zm0-80.4c-21.2 0-38.4 17.2-38.4 38.4s17.2 38.4 38.4 38.4 38.4-17.2 38.4-38.4-17.2-38.4-38.4-38.4z" fill="#1e1e40"/><path d="m40.4 56.7c-.3-1.5-.7-3-1-4.5-.2-.7-.3-1.5-.2-2.3.2-1 .9-1.8 1.8-2.2s2.1-.2 2.8.4c1 .8 1.4 2.2 1.7 3.4 1.5 5.3 3.6 10.3 5.8 15.3.3.7.6 1.4 1.2 1.8.6.5 1.5.6 2 0 .4-.4.4-1 .5-1.5.4-7.4 1.1-14.7 2.1-22.1.1-.4.1-.9.3-1.3.6-1.3 2.6-1.5 3.8-.7.9.6 1.4 1.6 1.7 2.7 1.4-.7 3.1.1 4 1.3.9 1.3 1.1 2.9 1.3 4.5.7 5.1 1.3 10.1 1.6 15.2.2 3.6.2 7 1.2 10.3.9 3 2.7 5.9 5.5 7.3 1.7-.2 3.2-1.4 4.4-2.6 1.2-1.3 2.3-2.7 3.8-3.6.9-.5 1.9-.9 2.9-1 1.2-.2 2.4-.3 3.5.3 1.1.5 1.8 1.8 1.5 2.9-.4 1.6-2.4 2-3.9 2.8-3.2 1.6-4.7 5.3-6.4 8.5-2.7 5.2-6.8 10-12.4 11.6-1.6.5-3.3.7-5 .8-2.1.1-4.2.2-6.4.1-1.6.3-3.2.4-4.8.5-1.4.1-2.9.1-4.2-.4-2.1-.8-3.6-2.8-4.7-4.7-3.1-5.5-4.6-11.9-4.3-18.2.1-1.6.3-3.2 0-4.8-.2-1.1-.6-2.2-1-3.3-1.3-3.9-2-7.9-2.4-11.9-.1-1.2-.2-2.3.2-3.3s1.5-1.8 2.5-1.6c.3.1.4.2.6.3z" fill="#fff"/><path d="m67.1 79.6c.5.6.5 1.4.6 2.2s-1.6 1.1-2.2 1.7c-3.9 3.2-4 3.6-5.5 7-.4.9-1.9 7.7-2.6 8.3-1 .9-1.9 1-3.2.8-7.1-1.5-10-12.8-9.7-14.9.3-2.2 4.3-1.4 8.5-3.6 7.9-4.3 13.7-2.1 14.1-1.5z" fill="#d6d6d6"/><path d="m58.6 104c-1.6.3-3.2.4-4.8.5-1.4.1-2.9.1-4.2-.4-2.1-.8-3.6-2.8-4.7-4.7-3.1-5.5-4.6-11.9-4.3-18.2.1-1.6.3-3.2 0-4.8-.2-1.1-.6-2.2-1-3.3-1.3-3.9-2-7.9-2.4-11.9-.2-1.1-.3-2.2.1-3.2s1.5-1.8 2.5-1.6c.2 0 .4.1.5.2.8.4 1.2 1.4 1.5 2.3 1.9 5 3.7 9.9 5.4 14.9" fill="none" stroke="#1e1e40" stroke-linecap="round" stroke-miterlimit="10" stroke-width="1.6"/><path d="m40.4 56.7c-.3-1.6-.7-3.1-1-4.6-.2-.7-.3-1.5-.2-2.3.2-1 .9-1.8 1.8-2.2s2.1-.2 2.8.4c1 .8 1.4 2.2 1.7 3.4 1.5 5.3 3.6 10.3 5.8 15.3.3.7.6 1.4 1.2 1.8.6.5 1.5.6 2 0 .4-.4.4-1 .5-1.5.4-7.4 1.1-14.7 2.1-22.1.1-.4.1-.9.3-1.3.6-1.3 2.6-1.5 3.8-.7.9.6 1.4 1.6 1.7 2.7.1.4.1.8.2 1.1.1 1.5-.2 2.9-.2 4.4 0 1.3.1 2.6.2 3.8.1 1.9-.1 3.7-.3 5.6-.3 3.2-.7 6.3-1 9.5" fill="none" stroke="#1e1e40" stroke-linecap="round" stroke-miterlimit="10" stroke-width="1.6"/><path d="m63 45.9c1.4-.7 3.1.1 4 1.3.9 1.3 1.1 2.9 1.3 4.5.7 5.1 1.3 10.1 1.6 15.2.1 3.4.1 6.8 1.1 10.1.9 3 2.7 5.9 5.5 7.3.2.1.5.2.7.3" fill="none" stroke="#1e1e40" stroke-linecap="round" stroke-miterlimit="10" stroke-width="1.6"/><path d="m76.5 84.2c1.7-.2 3.2-1.4 4.4-2.6 1.2-1.3 2.3-2.7 3.8-3.6.9-.5 1.9-.9 2.9-1 1.2-.2 2.4-.3 3.5.3 1.1.5 1.8 1.8 1.5 2.9-.4 1.6-2.4 2-3.9 2.8-3.2 1.6-4.7 5.3-6.4 8.5-2.7 5.2-6.8 10-12.4 11.6-1.6.5-3.3.7-5 .8-2.1.1-4.2.2-6.4.1-.1 0-.1 0-.2 0" fill="none" stroke="#1e1e40" stroke-linecap="round" stroke-miterlimit="10" stroke-width="1.6"/><path d="m57.1 98.7c.2 0 .3-.3.3-.5.5-2.2.7-4.5 1.4-6.6 1.1-3.4 3.6-6.4 6.7-8.2" fill="none" stroke="#1e1e40" stroke-linecap="round" stroke-miterlimit="10" stroke-width="1.6"/></svg>
